<svg xmlns="http://www.w3.org/2000/svg" xml:space="preserve" style="fill-rule:evenodd;clip-rule:evenodd;stroke-linejoin:round;stroke-miterlimit:2" viewBox="0 0 540 540"><path d="M0 0h540v540H0z" style="fill:none"/><path d="m347.916 361.385 39.611 68.608 2.347 5.219 1.234 5.457.144 5.48-.897 5.342-1.895 5.075-2.864 4.675-3.797 4.109-4.643 3.346-5.219 2.347-5.457 1.234-5.48.144-5.342-.897-5.075-1.895-4.675-2.864-4.109-3.797-3.346-4.643-39.78-68.901c-31.55 10.696-64.93 10.108-94.651-.301-35.991-9.489-69.276-32.078-93.124-63.395a18 18 0 0 1-1.268-1.905l-4.392-7.608a17 17 0 0 1-.286-.514 211 211 0 0 1-6.898-14.094 177 177 0 0 1-2.971-7.128c-6.822-17.442-10.379-35.098-9.618-53.6q.032-.785.132-1.562a109 109 0 0 1 2.795-14.129 115 115 0 0 1 1.876-6.293c5.96-18.109 16.924-36.507 33.532-54.075a190 190 0 0 1 4.129-4.235c12.905-12.838 28.958-25.237 48.378-36.703a261 261 0 0 1 2.576-1.504c.311-.179.633-.335.937-.522l.882-.54c19.841-12.122 38.298-20.533 55.258-25.827a183 183 0 0 1 5.706-1.68c25.011-6.918 46.934-7.05 65.562-2.349a97.481 97.481 0 0 1 11.764 3.763c28.418 11.123 43.737 25.551 62.263 56.454q.754 1.257 1.491 2.534.232.402.444.816l5.501 10.777q.294.578.548 1.176c12.548 29.693 15.901 66.189 8.671 100.602-3.96 35.349-21.334 69.256-49.994 93.803" style="fill:#4b97be;fill-opacity:.48"/><path d="m355.658 356.312 39.611 68.608 2.348 5.219 1.233 5.457.144 5.48-.897 5.343-1.894 5.075-2.865 4.674-3.797 4.109-4.642 3.346-5.219 2.348-5.457 1.233-5.481.144-5.342-.897-5.075-1.894-4.674-2.865-4.109-3.797-3.346-4.642-39.78-68.901c-31.551 10.695-64.931 10.107-94.652-.302-35.99-9.488-69.276-32.078-93.124-63.395a18 18 0 0 1-1.268-1.905l-4.392-7.608a20 20 0 0 1-.286-.514 211 211 0 0 1-6.898-14.093 178 178 0 0 1-2.971-7.129c-6.821-17.442-10.378-35.097-9.618-53.6q.032-.783.132-1.562a109 109 0 0 1 2.795-14.129q.839-3.141 1.876-6.293c5.96-18.109 16.924-36.506 33.532-54.075a192 192 0 0 1 4.129-4.235c12.906-12.837 28.958-25.237 48.378-36.703a273 273 0 0 1 2.576-1.504c.311-.178.634-.335.937-.521q.441-.272.882-.541c19.841-12.121 38.298-20.533 55.259-25.826q2.88-.9 5.705-1.68c25.011-6.919 46.934-7.051 65.562-2.35a99 99 0 0 1 6.589 1.906 97 97 0 0 1 5.176 1.857c28.417 11.123 43.736 25.551 62.263 56.454q.753 1.257 1.491 2.534.231.403.443.817l5.501 10.776q.295.578.548 1.177c12.548 29.692 15.902 66.188 8.672 100.601-3.961 35.349-21.335 69.256-49.995 93.803" style="fill:#fff"/><path d="M332.619 352.408c-2.851-4.939-9.175-6.633-14.114-3.782-4.938 2.851-6.633 9.176-3.782 14.114l47.061 81.513c2.852 4.938 9.176 6.633 14.115 3.781 4.938-2.851 6.633-9.175 3.781-14.114z" style="fill:#6775a8"/><path d="M330.981 336.42a5.253 5.253 0 0 0-7.173-1.922l-20.19 11.657a5.253 5.253 0 0 0-1.922 7.173l5.251 9.095a5.253 5.253 0 0 0 7.173 1.921l20.19-11.656a5.253 5.253 0 0 0 1.922-7.173z" style="fill:#6775a8"/><path d="m293.923 341.523-51.044-15.411a3.1 3.1 0 0 1 1.793-5.936l51.043 15.411-45.607-27.621a3.1 3.1 0 1 1 3.212-5.303l45.607 27.62-37.306-38.095a3.1 3.1 0 0 1 4.43-4.338l37.306 38.095-26.66-46.175 5.37-3.101 26.659 46.176-14.338-51.355 5.972-1.667 14.338 51.354-1.116-53.307a3.1 3.1 0 1 0 6.199-.13l1.116 53.308 12.176-51.911 6.036 1.416-12.175 51.91 24.702-47.251 5.495 2.873-36.072 68.999-2.747 1.664-.13-.003-77.791-3.26.259-6.195z" style="fill:#6775a8"/><path d="M201.946 144.986c60.579-34.975 137.031-15.763 170.699 42.552s12.081 134.13-48.498 169.106-137.031 15.763-170.699-42.552-12.081-134.13 48.498-169.106m5.038 8.726c-55.673 32.143-75.752 101.749-44.81 155.342 30.942 53.592 101.262 71.007 156.935 38.864s75.752-101.749 44.81-155.342c-30.941-53.592-101.262-71.007-156.935-38.864" style="fill:#6775a8"/><path d="M245.111 370.965c-42.896-1.603-84.535-24.951-112.15-61.215l-4.393-7.608c-11.474-21.464-18.314-42.769-17.376-65.597 4.547-35.287 31.424-73.037 84.406-103.635.466-.267.941-.516 1.396-.795 51.788-31.859 93.284-36.904 123.18-25.203 24.49 9.585 37.42 22.316 53.385 48.947q.678 1.131 1.341 2.279l5.501 10.777c16.081 38.051 15.034 88.627-6.157 128.254-25.036-7.015-54.064-3.829-79.857 11.062-25.488 14.716-42.656 37.882-49.276 62.734" style="fill:#5bcefa"/><clipPath id="a"><path d="M245.111 370.965c-42.896-1.603-84.535-24.951-112.15-61.215l-4.393-7.608c-11.474-21.464-18.314-42.769-17.376-65.597 4.547-35.287 31.424-73.037 84.406-103.635.466-.267.941-.516 1.396-.795 51.788-31.859 93.284-36.904 123.18-25.203 24.49 9.585 37.42 22.316 53.385 48.947q.678 1.131 1.341 2.279l5.501 10.777c16.081 38.051 15.034 88.627-6.157 128.254-25.036-7.015-54.064-3.829-79.857 11.062-25.488 14.716-42.656 37.882-49.276 62.734"/></clipPath><g clip-path="url(#a)"><path d="M401.596 223.256a911 911 0 0 0 9.73-43.014c-47.081 6.23-92.025 21.334-129.14 45.982-40.718 27.042-70.93 65.297-87.694 108.73-7.463 19.336-12.536 39.873-13.349 60.901-.371 9.6.147 19.372 2.231 29.031 2.159 10.005 6.138 19.956 12.674 28.734q6.359-2.903 12.733-5.783c-6.282-9.302-9.311-19.869-10.316-30.216-1.577-16.242 1.385-32.386 6.084-47.493 9.559-30.724 27.434-58.854 51.161-81.708 14.28-13.755 30.749-25.667 48.844-35.386 29.137-15.65 62.413-25.52 97.042-29.778" style="fill:#f5a9b8"/><clipPath id="b"><path d="M401.596 223.256a911 911 0 0 0 9.73-43.014c-47.081 6.23-92.025 21.334-129.14 45.982-40.718 27.042-70.93 65.297-87.694 108.73-7.463 19.336-12.536 39.873-13.349 60.901-.371 9.6.147 19.372 2.231 29.031 2.159 10.005 6.138 19.956 12.674 28.734q6.359-2.903 12.733-5.783c-6.282-9.302-9.311-19.869-10.316-30.216-1.577-16.242 1.385-32.386 6.084-47.493 9.559-30.724 27.434-58.854 51.161-81.708 14.28-13.755 30.749-25.667 48.844-35.386 29.137-15.65 62.413-25.52 97.042-29.778"/></clipPath><g clip-path="url(#b)"><path d="M165.507 341.926a160 160 0 0 1-7.202-5.667l100.943 4.231a103 103 0 0 0-3.365 5.224zm99.857-9.465-143.105-43.206a159 159 0 0 1-2.67-6.405l149.702 45.198a108 108 0 0 0-3.927 4.413m9.548-9.964-161.386-97.739a97 97 0 0 1 1.581-5.308l164.049 99.351a108 108 0 0 0-4.244 3.696m9.419-7.719L144.622 172.112a174 174 0 0 1 3.743-3.838l140.433 143.405a111 111 0 0 0-4.467 3.099m9.478-6.211L193.201 134.309q1.19-.702 2.397-1.399c.466-.267.941-.516 1.396-.795l.834-.512L298.499 305.97a113 113 0 0 0-4.112 2.261zm9.926-5.164-54.67-195.804q2.596-.81 5.142-1.514l54.497 195.187a111 111 0 0 0-4.969 2.131m10.921-4.314-4.09-195.249q2.752.695 5.394 1.56l4.023 192.061q-2.671.741-5.327 1.628m12.616-3.38 36.37-155.062a173 173 0 0 1 4.109 5.954l-34.738 148.104q-2.87.42-5.741 1.004m15.141-1.948 47.377-90.622c.457 3.135.819 6.302 1.086 9.491l-42.336 80.982a102 102 0 0 0-6.127.149" style="fill:#f88ea3"/></g><path d="M401.596 223.256a911 911 0 0 0 9.73-43.014c-47.081 6.23-92.025 21.334-129.14 45.982-40.718 27.042-70.93 65.297-87.694 108.73-7.463 19.336-12.536 39.873-13.349 60.901-.371 9.6.147 19.372 2.231 29.031 2.159 10.005 6.138 19.956 12.674 28.734q6.359-2.903 12.733-5.783c-6.282-9.302-9.311-19.869-10.316-30.216-1.577-16.242 1.385-32.386 6.084-47.493 9.559-30.724 27.434-58.854 51.161-81.708 14.28-13.755 30.749-25.667 48.844-35.386 29.137-15.65 62.413-25.52 97.042-29.778Z" style="fill:none;stroke:#ee799d;stroke-width:.5px"/><path d="M175.484 463.006q4.783-2.175 9.561-4.36c-8.496-10.419-13.697-22.493-16.653-34.661-5.154-21.208-4.402-43.038-1.561-63.759 5.891-42.975 22.458-84.249 48.833-118.98C232.557 219 253.52 199.438 277.66 183.43c40.892-27.117 90.352-43.629 142.047-50.919a1093 1093 0 0 0 6.64-52.796c-61.327 9.14-119.905 29.75-166.613 64.201-27.004 19.918-49.694 44.199-67.099 71.527-26.5 41.609-40.896 90.1-43.784 139.548-1.376 23.557-.597 48.261 6.773 71.86 4.008 12.835 10.33 25.388 19.86 36.155" style="fill:#f5a9b8"/><clipPath id="c"><path d="M175.484 463.006q4.783-2.175 9.561-4.36c-8.496-10.419-13.697-22.493-16.653-34.661-5.154-21.208-4.402-43.038-1.561-63.759 5.891-42.975 22.458-84.249 48.833-118.98C232.557 219 253.52 199.438 277.66 183.43c40.892-27.117 90.352-43.629 142.047-50.919a1093 1093 0 0 0 6.64-52.796c-61.327 9.14-119.905 29.75-166.613 64.201-27.004 19.918-49.694 44.199-67.099 71.527-26.5 41.609-40.896 90.1-43.784 139.548-1.376 23.557-.597 48.261 6.773 71.86 4.008 12.835 10.33 25.388 19.86 36.155"/></clipPath><g clip-path="url(#c)"><path d="M165.507 341.926a160 160 0 0 1-7.202-5.667l100.943 4.231a103 103 0 0 0-3.365 5.224zm99.857-9.465-143.105-43.206a159 159 0 0 1-2.67-6.405l149.702 45.198a108 108 0 0 0-3.927 4.413m9.548-9.964-161.386-97.739a97 97 0 0 1 1.581-5.308l164.049 99.351a108 108 0 0 0-4.244 3.696m9.419-7.719L144.622 172.112a174 174 0 0 1 3.743-3.838l140.433 143.405a111 111 0 0 0-4.467 3.099m9.478-6.211L193.201 134.309q1.19-.702 2.397-1.399c.466-.267.941-.516 1.396-.795l.834-.512L298.499 305.97a113 113 0 0 0-4.112 2.261zm9.926-5.164-54.67-195.804q2.596-.81 5.142-1.514l54.497 195.187a111 111 0 0 0-4.969 2.131m10.921-4.314-4.09-195.249q2.752.695 5.394 1.56l4.023 192.061q-2.671.741-5.327 1.628m12.616-3.38 36.37-155.062a173 173 0 0 1 4.109 5.954l-34.738 148.104q-2.87.42-5.741 1.004m15.141-1.948 47.377-90.622c.457 3.135.819 6.302 1.086 9.491l-42.336 80.982a102 102 0 0 0-6.127.149" style="fill:#f88ea3"/></g><path d="M175.484 463.006q4.783-2.175 9.561-4.36c-8.496-10.419-13.697-22.493-16.653-34.661-5.154-21.208-4.402-43.038-1.561-63.759 5.891-42.975 22.458-84.249 48.833-118.98C232.557 219 253.52 199.438 277.66 183.43c40.892-27.117 90.352-43.629 142.047-50.919a1093 1093 0 0 0 6.64-52.796c-61.327 9.14-119.905 29.75-166.613 64.201-27.004 19.918-49.694 44.199-67.099 71.527-26.5 41.609-40.896 90.1-43.784 139.548-1.376 23.557-.597 48.261 6.773 71.86 4.008 12.835 10.33 25.388 19.86 36.155Z" style="fill:none;stroke:#ee799d;stroke-width:.5px"/><path d="M185.045 458.646q5.5-2.514 11.003-5.026c-7.406-9.947-11.5-21.37-13.443-32.717-3.213-18.759-1.202-37.739 2.757-55.64 8.125-36.743 25.848-71.224 51.28-99.715 15.825-17.728 34.687-33.184 55.846-45.812 34.997-20.885 76.032-33.83 118.838-39.494a995 995 0 0 0 8.381-47.731c-51.695 7.29-101.155 23.802-142.047 50.919-24.14 16.008-45.103 35.57-61.996 57.816-26.375 34.731-42.942 76.005-48.833 118.98-2.841 20.721-3.593 42.551 1.561 63.759 2.956 12.168 8.157 24.242 16.653 34.661" style="fill:#fff"/><clipPath id="d"><path d="M185.045 458.646q5.5-2.514 11.003-5.026c-7.406-9.947-11.5-21.37-13.443-32.717-3.213-18.759-1.202-37.739 2.757-55.64 8.125-36.743 25.848-71.224 51.28-99.715 15.825-17.728 34.687-33.184 55.846-45.812 34.997-20.885 76.032-33.83 118.838-39.494a995 995 0 0 0 8.381-47.731c-51.695 7.29-101.155 23.802-142.047 50.919-24.14 16.008-45.103 35.57-61.996 57.816-26.375 34.731-42.942 76.005-48.833 118.98-2.841 20.721-3.593 42.551 1.561 63.759 2.956 12.168 8.157 24.242 16.653 34.661"/></clipPath><g clip-path="url(#d)"><path d="M165.507 341.926a160 160 0 0 1-7.202-5.667l100.943 4.231a103 103 0 0 0-3.365 5.224zm99.857-9.465-143.105-43.206a159 159 0 0 1-2.67-6.405l149.702 45.198a108 108 0 0 0-3.927 4.413m9.548-9.964-161.386-97.739a97 97 0 0 1 1.581-5.308l164.049 99.351a108 108 0 0 0-4.244 3.696m9.419-7.719L144.622 172.112a174 174 0 0 1 3.743-3.838l140.433 143.405a111 111 0 0 0-4.467 3.099m9.478-6.211L193.201 134.309q1.19-.702 2.397-1.399c.466-.267.941-.516 1.396-.795l.834-.512L298.499 305.97a113 113 0 0 0-4.112 2.261zm9.926-5.164-54.67-195.804q2.596-.81 5.142-1.514l54.497 195.187a111 111 0 0 0-4.969 2.131m10.921-4.314-4.09-195.249q2.752.695 5.394 1.56l4.023 192.061q-2.671.741-5.327 1.628m12.616-3.38 36.37-155.062a173 173 0 0 1 4.109 5.954l-34.738 148.104q-2.87.42-5.741 1.004m15.141-1.948 47.377-90.622c.457 3.135.819 6.302 1.086 9.491l-42.336 80.982a102 102 0 0 0-6.127.149" style="fill:#f7f7f7"/></g></g><path d="m170.173 259.065-56.647-34.307a97 97 0 0 1 1.581-5.308l57.155 34.614a280 280 0 0 0-2.089 5.001m20.286-40.146-45.837-46.807a174 174 0 0 1 3.743-3.838l45.03 45.983-.76 1.186a280 280 0 0 0-2.176 3.476m29.178-38.821-26.436-45.789q1.189-.703 2.397-1.399c.466-.268.941-.516 1.396-.795l.834-.512 25.622 44.379a264 264 0 0 0-3.813 4.116m39.658-35.858-10.23-36.641q2.596-.81 5.142-1.514l9.717 34.8a274 274 0 0 0-4.19 3.031zm51.477-30.586-.206-9.814q2.752.695 5.394 1.56l.121 5.8a342 342 0 0 0-5.309 2.454m73.145 112.288-35.377 67.67a102 102 0 0 0-6.127.149l34.776-66.519q3.351-.687 6.728-1.3m-36.931 9.191-13.973 59.572q-2.87.42-5.741 1.004l13.741-58.583a270 270 0 0 1 5.973-1.993m-28.082 10.806 1.079 51.522q-2.671.741-5.327 1.628l-1.061-50.663a240 240 0 0 1 5.309-2.487m-22.402 11.628 12.202 43.705a111 111 0 0 0-4.969 2.131l-11.993-42.952q2.358-1.468 4.76-2.884m-18.803 12.377 20.8 36.026a113 113 0 0 0-4.112 2.261l-.578.336-20.426-35.379a220 220 0 0 1 4.316-3.244m-16.592 13.458 27.691 28.277a111 111 0 0 0-4.467 3.099l-27.169-27.744a213 213 0 0 1 3.945-3.632m-15.279 15.215 33.328 20.184a108 108 0 0 0-4.244 3.696l-32.682-19.793a201 201 0 0 1 3.598-4.087m-14.482 17.975 37.945 11.456a108 108 0 0 0-3.927 4.413l-37.229-11.24q1.57-2.336 3.211-4.629m-13.709 22.154 41.611 1.744a103 103 0 0 0-3.365 5.224l-40.921-1.716a186 186 0 0 1 2.675-5.252m-60.574-38.983-34.804-10.508a159 159 0 0 1-2.67-6.405l38.79 11.712a297 297 0 0 0-1.316 5.201m194.17-106.212q2.955-.944 5.936-1.834l-.005.019a319 319 0 0 0-5.936 1.837zm-33.159 12.783.001.025a283 283 0 0 0-5.309 2.494l-.001-.023q2.637-1.275 5.309-2.496m-31.176 16.838h.001l-.532.337zm-25.507 18.526.021.036a231 231 0 0 0-4.141 3.548l-.031-.054a235 235 0 0 1 4.151-3.53m-21.381 20.16.108.11a229 229 0 0 0-3.605 3.98l-.119-.122.248-.278a230 230 0 0 1 3.368-3.69m-18.214 22.204.174.106a225 225 0 0 0-3.082 4.4l-.174-.106a221 221 0 0 1 3.082-4.4m-15.553 24.951.167.05a224 224 0 0 0-2.531 4.835l-.152-.046a222 222 0 0 1 2.516-4.839m-12.851 28.717.048.002a229 229 0 0 0-1.893 5.285h-.006a223 223 0 0 1 1.851-5.287" style="fill:#4db6ed;fill-opacity:.58"/></svg>